<svg width="56" height="56" viewBox="0 0 56 56" fill="none" xmlns="http://www.w3.org/2000/svg">
<g clip-path="url(#clip0_1_57)">
<path d="M18.106 16.8213C18.2773 13.2799 20.2765 10.6809 24.1036 9.02446C27.9306 7.31086 31.2436 6.45406 34.0424 6.45406C36.8984 6.45406 39.4117 6.76822 41.5823 7.39654C45.8663 8.59606 48.4367 10.5667 49.2935 13.3085C49.4648 13.8797 49.5505 14.4223 49.5505 14.9364C49.5505 16.8785 48.6652 18.6777 46.8944 20.3342C45.1237 21.9336 43.2673 23.1902 41.3252 24.1041C39.3832 24.9609 37.6696 25.5607 36.1844 25.9034C34.7564 26.2461 32.7858 26.646 30.2725 27.1029C34.2709 27.2743 37.1555 28.0454 38.9262 29.4163C40.754 30.7872 41.668 32.4437 41.668 34.3857C41.668 36.3278 40.6684 38.1271 38.6692 39.7836C35.242 42.7538 29.9869 44.5245 22.904 45.0957C22.3328 45.1529 21.3618 45.1814 19.9909 45.1814C18.62 45.1814 17.0778 44.8387 15.3642 44.1533C13.0223 43.1822 11.8513 41.7542 11.8513 39.8693C11.8513 38.8982 12.2226 37.9557 12.9652 37.0418C13.7648 36.1279 14.9358 35.5567 16.478 35.3282C17.1064 35.3282 17.4205 35.471 17.4205 35.7566C17.4205 35.9851 17.0778 36.0993 16.3924 36.0993C15.7069 35.9851 15.05 36.3278 14.4217 37.1275C13.7934 37.8701 13.4792 38.4984 13.4792 39.0125C13.4792 39.4694 13.5078 39.8121 13.5649 40.0406C14.2504 42.2683 17.0778 43.3821 22.0472 43.3821C26.674 43.3821 30.7295 42.2397 34.2138 39.9549C36.6128 38.4698 37.8124 36.6705 37.8124 34.5571C37.8124 31.8153 35.499 29.8733 30.8723 28.7309C28.6446 28.1597 26.9596 27.8741 25.8172 27.8741C24.6748 27.8741 23.7608 27.8741 23.0754 27.8741C22.4471 27.8741 22.1329 27.617 22.1329 27.1029C22.1329 26.4175 22.7898 26.1033 24.1036 26.1605C24.6176 26.1605 25.7315 26.1605 27.4451 26.1605C29.1587 26.1605 31.8148 25.7321 35.4133 24.8753C39.0119 23.9613 41.8393 22.5333 43.8956 20.5913C45.7806 18.6492 46.7231 16.907 46.7231 15.3648C46.7231 13.1942 45.5521 11.4806 43.2102 10.224C40.9254 8.91022 38.1551 8.25334 34.8992 8.25334C31.7005 8.25334 28.3304 9.08158 24.789 10.7381C21.3047 12.3374 19.5054 14.3937 19.3912 16.907C19.3912 17.4211 19.2484 17.7924 18.9628 18.0209C18.7343 18.2493 18.5058 18.2493 18.2773 18.0209C18.106 17.7353 18.0488 17.3354 18.106 16.8213Z" fill="#B457F5"/>
</g>
<defs>
<clipPath id="clip0_1_57">
<rect width="56" height="56" fill="#B457F5"/>
</clipPath>
</defs>
</svg>
