<svg width="56" height="56" viewBox="0 0 56 56" fill="none" xmlns="http://www.w3.org/2000/svg">
<g clip-path="url(#clip0_1_64)">
<path d="M37.6748 26.3318C39.0457 26.6745 39.7311 27.1315 39.7311 27.7027C39.7311 28.2168 39.4741 28.4738 38.96 28.4738V28.3025C38.9029 28.4167 38.8172 28.4738 38.703 28.4738L36.818 28.1311C35.4471 27.9026 34.6189 27.7884 34.3333 27.7884C34.0477 27.7884 33.7906 27.8169 33.5622 27.8741H32.534C31.7914 29.3592 30.0778 32.8435 27.3932 38.327L25.2512 42.8681C25.2512 42.9252 24.8799 43.5821 24.1374 44.8387C23.4519 44.8387 23.1092 44.3817 23.1092 43.4678C23.1092 42.5539 24.223 39.755 26.4507 35.0712C28.6784 30.3302 29.7922 27.9026 29.7922 27.7884C29.7351 27.7313 29.4781 27.7027 29.0211 27.7027C23.8232 27.7027 18.9109 28.4453 14.2842 29.9304C13.4274 29.9304 12.999 29.5305 12.999 28.7309C12.999 28.2739 13.7415 27.5313 15.2266 26.5032L18.0541 24.7039C19.0251 24.0185 20.396 23.076 22.1667 21.8765C25.8795 19.3061 28.7926 17.2497 30.9061 15.7075C35.5899 12.2232 39.3884 8.68174 42.3015 5.08318C43.4439 5.08318 44.0151 6.16846 44.0151 8.33902V9.62422C43.2726 10.2525 41.4447 12.9372 38.5316 17.6781C35.4471 22.4762 33.9049 25.1323 33.9049 25.6464C34.8759 25.9891 36.1326 26.2176 37.6748 26.3318ZM25.851 25.1323L28.8498 25.218L30.3063 25.3037C30.5919 25.3037 30.7633 25.3322 30.8204 25.3893C31.6201 25.3893 34.1905 20.8197 38.5316 11.6805C35.2186 14.4223 31.7343 17.1355 28.0786 19.8201C24.423 22.5048 22.081 24.2755 21.0529 25.1323H25.851Z" fill="#F55860"/>
</g>
<defs>
<clipPath id="clip0_1_64">
<rect width="56" height="56" fill="#F55860"/>
</clipPath>
</defs>
</svg>
