<svg width="56" height="56" viewBox="0 0 56 56" fill="none" xmlns="http://www.w3.org/2000/svg">
<g clip-path="url(#clip0_1_49)">
<path d="M22.7676 41.8398C22.5962 42.2397 22.1964 42.4396 21.5681 42.4396C20.9398 42.4396 20.6256 42.154 20.6256 41.5828C20.6256 41.4686 20.6827 41.2401 20.797 40.8974C24.3384 33.586 26.7946 28.4166 28.1654 25.3893C29.5934 22.3619 31.1642 18.592 32.8778 14.0795L30.6502 15.7074C29.4506 16.5642 28.5367 17.2782 27.9084 17.8494C27.2801 18.3635 26.8517 18.6206 26.6232 18.6206C26.4518 18.6206 26.3662 18.4778 26.3662 18.1922C26.3662 17.8494 26.6803 17.421 27.3086 16.907C27.937 16.3358 29.3935 14.9078 31.6783 12.623C34.0202 10.281 36.0766 8.25328 37.8473 6.53968C38.0186 6.48256 38.3042 6.454 38.7041 6.454C39.161 6.454 39.618 6.65392 40.075 7.05376C40.5319 7.4536 40.7604 7.882 40.7604 8.33896V8.596C38.7041 11.2806 35.8195 15.9359 32.1067 22.5618C27.937 30.273 24.8239 36.699 22.7676 41.8398Z" fill="#3E6EE6"/>
</g>
<defs>
<clipPath id="clip0_1_49">
<rect width="56" height="56" fill="#3E6EE6"/>
</clipPath>
</defs>
</svg>
