<svg width="56" height="56" viewBox="0 0 56 56" fill="none" xmlns="http://www.w3.org/2000/svg">
<g clip-path="url(#clip0_1_71)">
<path d="M36.2702 44.6673C36.2131 44.7244 36.0417 44.7244 35.7561 44.6673C35.5276 44.6102 35.4134 44.4674 35.4134 44.2389C35.4134 44.0104 35.6133 43.7819 36.0132 43.5534C37.0984 42.9822 37.6411 42.4396 37.6411 41.9255C37.6411 41.1258 36.5844 40.3833 34.4709 39.6978C32.4146 39.0124 30.1584 38.6982 27.7022 38.7554C25.246 38.7554 20.7621 39.9263 14.2504 42.2682C13.4508 42.611 12.7082 42.7823 12.0228 42.7823C11.3944 42.7823 11.0803 42.4396 11.0803 41.7542C11.0803 41.0687 11.5658 40.269 12.5368 39.3551C13.565 38.4983 14.6217 38.0699 15.707 38.0699C19.4198 36.8133 24.0465 34.3571 29.5872 30.7014C35.1278 26.9886 39.2404 23.4472 41.9251 20.0771C44.6097 16.707 45.952 13.9653 45.952 11.8518C45.952 9.56704 44.524 8.42464 41.668 8.42464C38.8692 8.42464 35.6133 9.68128 31.9005 12.1946C28.2448 14.6507 25.9886 17.3068 25.1318 20.1628C24.9604 20.6769 24.7034 20.9339 24.3607 20.9339C24.1893 20.9339 24.1036 20.7911 24.1036 20.5055C24.732 16.6214 26.7026 13.3941 30.0156 10.8237C33.3285 8.25328 37.0699 6.96808 41.2396 6.96808C43.296 6.96808 44.9239 7.56784 46.1234 8.76736C47.2658 10.024 47.837 11.5948 47.837 13.4798C47.837 16.2786 46.8088 18.8205 44.7525 21.1053C42.6962 23.333 40.2115 25.3607 37.2984 27.1886C36.4416 27.7598 35.2135 28.5309 33.6141 29.5019C27.7308 32.9862 23.9894 35.5281 22.39 37.1274C33.0144 37.1274 38.3265 38.6411 38.3265 41.6685C38.3265 43.2107 37.6411 44.2103 36.2702 44.6673Z" fill="white"/>
</g>
<defs>
<clipPath id="clip0_1_71">
<rect width="56" height="56" fill="white"/>
</clipPath>
</defs>
</svg>
