<svg width="64" height="64" viewBox="0 0 64 64" fill="none" xmlns="http://www.w3.org/2000/svg">
<rect width="64" height="64" rx="32" fill="#813FAF"/>
<path d="M31.375 45.7488H44.5521C44.8698 45.7488 45.1745 45.6226 45.3991 45.3979C45.6238 45.1733 45.75 44.8686 45.75 44.5509V31.3737C45.75 29.486 45.3782 27.6167 44.6558 25.8727C43.9334 24.1286 42.8745 22.544 41.5397 21.2091C40.2048 19.8743 38.6201 18.8154 36.8761 18.093C35.132 17.3706 33.2628 16.9988 31.375 16.9988H31.375C29.4872 16.9988 27.618 17.3706 25.8739 18.093C24.1299 18.8154 22.5452 19.8743 21.2103 21.2091C19.8755 22.544 18.8166 24.1287 18.0942 25.8727C17.3718 27.6168 17 29.486 17 31.3738V31.3738C17 35.1863 18.5145 38.8426 21.2103 41.5384C23.9062 44.2343 27.5625 45.7488 31.375 45.7488Z" fill="white" stroke="white" stroke-width="4" stroke-linecap="round" stroke-linejoin="round"/>
<path d="M31.375 33.25C30.3395 33.25 29.5 32.4105 29.5 31.375C29.5 30.3395 30.3395 29.5 31.375 29.5C32.4105 29.5 33.25 30.3395 33.25 31.375C33.25 32.4105 32.4105 33.25 31.375 33.25Z" fill="#813FAF"/>
<path d="M38.875 33.25C37.8395 33.25 37 32.4105 37 31.375C37 30.3395 37.8395 29.5 38.875 29.5C39.9105 29.5 40.75 30.3395 40.75 31.375C40.75 32.4105 39.9105 33.25 38.875 33.25Z" fill="#813FAF"/>
<path d="M23.875 33.25C22.8395 33.25 22 32.4105 22 31.375C22 30.3395 22.8395 29.5 23.875 29.5C24.9105 29.5 25.75 30.3395 25.75 31.375C25.75 32.4105 24.9105 33.25 23.875 33.25Z" fill="#813FAF"/>
</svg>
