<svg width="161" height="49" viewBox="0 0 161 49" fill="none" xmlns="http://www.w3.org/2000/svg">
<path d="M71.8991 17.7411V15.4807H76.8984V34.636H71.8991V32.3756C70.3997 34.2399 68.2939 35.1725 65.5816 35.1734C62.9994 35.1734 60.7773 34.2025 58.9155 32.2607C57.0813 30.2943 56.1641 27.8935 56.1641 25.0584C56.1641 22.2504 57.0813 19.8624 58.9155 17.8943C60.7765 15.9278 62.9985 14.9442 65.5816 14.9434C68.2947 14.9434 70.4005 15.8759 71.8991 17.7411ZM62.6753 28.9729C63.6824 29.9684 64.9615 30.4662 66.5125 30.4662C68.0636 30.4662 69.3423 29.9684 70.3485 28.9729C71.3814 27.9518 71.8978 26.6491 71.8978 25.0647C71.8978 23.4804 71.3814 22.1904 70.3485 21.1949C69.3414 20.1738 68.0627 19.6633 66.5125 19.6633C64.9623 19.6633 63.6832 20.1738 62.6753 21.1949C61.6673 22.1921 61.1634 23.4821 61.1634 25.0647C61.1634 26.6474 61.6673 27.9501 62.6753 28.9729Z" fill="white"/>
<path d="M86.4321 34.6361H81.4329V6.6676H86.4321V34.6361Z" fill="white"/>
<path d="M102.09 15.4807V20.2313H97.7101V28.1995C97.7101 28.864 97.8784 29.3495 98.215 29.6558C98.5494 29.9621 99.0413 30.1344 99.6869 30.1727C100.488 30.2108 101.29 30.2044 102.09 30.1536V34.6361C98.7052 35.019 96.2951 34.7063 94.8593 33.698C93.4236 32.6897 92.7066 30.8568 92.7083 28.1995V20.2313H89.3462V15.4807H92.7174V11.6147L97.7166 10.1201V15.4807H102.09Z" fill="white"/>
<path d="M123.871 27.089H109.261C109.905 29.4902 111.727 30.6904 114.725 30.6896C116.637 30.6896 118.084 30.0514 119.065 28.7751L123.096 31.0725C121.185 33.8064 118.37 35.1734 114.652 35.1734C111.448 35.1734 108.877 34.2153 106.939 32.299C105.002 30.3828 104.033 27.9693 104.033 25.0584C104.033 22.1977 104.989 19.7969 106.9 17.856C108.787 15.9142 111.24 14.9434 114.26 14.9434C117.127 14.9434 119.465 15.9142 121.275 17.856C123.135 19.7977 124.066 22.1985 124.065 25.0584C124.051 25.7391 123.987 26.4179 123.871 27.089ZM109.182 23.26H119.065C118.781 22.0092 118.206 21.0515 117.34 20.387C116.46 19.7177 115.375 19.3652 114.265 19.3876C112.92 19.3876 111.809 19.7279 110.931 20.4086C110.053 21.0894 109.47 22.039 109.182 23.2574V23.26Z" fill="white"/>
<path d="M138.326 14.9434C140.471 14.9434 142.216 15.6458 143.559 17.0506C144.954 18.4818 145.651 20.4231 145.652 22.8745V34.636H140.653V23.4846C140.653 22.2338 140.309 21.2634 139.62 20.5733C138.932 19.8832 137.995 19.5382 136.811 19.5382C135.492 19.5382 134.452 19.9407 133.69 20.7456C132.928 21.5505 132.547 22.7316 132.547 24.2887V34.6335H127.553V15.4807H132.553V17.625C133.74 15.8381 135.665 14.9442 138.326 14.9434Z" fill="white"/>
<path d="M161.004 15.4807V20.2313H156.624V28.1995C156.624 28.8645 156.791 29.3482 157.128 29.6558C157.465 29.9634 157.954 30.1344 158.6 30.1727C159.401 30.2108 160.204 30.2044 161.004 30.1536V34.6361C157.619 35.019 155.208 34.7063 153.774 33.698C152.339 32.6897 151.622 30.8568 151.623 28.1995V20.2313H148.251V15.4807H151.623V11.6147L156.623 10.1201V15.4807H161.004Z" fill="white"/>
<path d="M6.00634 25.2447L0 31.1823H13.859L0.917993 43.9725V43.975L6.00634 49H18.0229V43.0612H10.3381L18.0229 35.4631V43.0612H24.0318V25.2422L6.00634 25.2447Z" fill="#FFA600"/>
<path d="M43.5601 23.7565L49.5665 17.8177H35.7075L48.6485 5.02751V5.02495L43.5601 0H31.5436V5.93881H39.2284L31.5436 13.5369V5.93881H25.5347V23.7578L43.5601 23.7565Z" fill="#FFA600"/>
<path d="M59.37 41.0319H60.6611V47.6688H64.8147V48.8545H59.37V41.0319Z" fill="white"/>
<path d="M65.5209 46.1729C65.5149 45.7414 65.5993 45.3134 65.7688 44.9157C65.9122 44.5704 66.1371 44.2641 66.4247 44.0223C66.6883 43.8083 66.9864 43.6396 67.3066 43.5232C67.6137 43.4089 67.939 43.3501 68.2672 43.3496C68.651 43.3446 69.0326 43.409 69.393 43.5398C69.6985 43.6464 69.9751 43.821 70.2013 44.0504C70.4077 44.2708 70.5757 44.5235 70.6984 44.7983C70.8263 45.0795 70.8957 45.3834 70.9024 45.6917C70.909 46.0046 70.8821 46.3174 70.8223 46.6247H66.741C66.7632 46.8363 66.8365 47.0394 66.9547 47.2171C67.0729 47.3948 67.2325 47.5418 67.4202 47.6458C67.8461 47.8827 68.3287 48.0017 68.8172 47.9904C69.4121 47.9945 70.0001 47.8635 70.5357 47.6075V48.6286C70.0192 48.8745 69.3711 48.9975 68.5912 48.9975C67.7098 48.9975 66.9782 48.7515 66.3963 48.2597C65.8145 47.7679 65.5227 47.0723 65.5209 46.1729ZM69.7378 45.7262C69.7574 45.5614 69.7432 45.3944 69.6959 45.2351C69.6487 45.0759 69.5694 44.9277 69.4627 44.7996C69.2329 44.489 68.8542 44.3341 68.3266 44.335C67.9264 44.3249 67.5356 44.4556 67.2239 44.7038C67.0715 44.8281 66.9486 44.984 66.8638 45.1605C66.779 45.3369 66.7345 45.5296 66.7333 45.7249L69.7378 45.7262Z" fill="white"/>
<path d="M72.6764 41.8704L73.8746 41.5793V43.4939H75.8422V44.5443H73.8746V47.0025C73.8746 47.3458 73.9559 47.5871 74.1186 47.7287C74.2813 47.8704 74.5421 47.9419 74.9036 47.9419C75.2794 47.9404 75.6514 47.8681 75.9998 47.7287V48.7562C75.5314 48.9175 75.0381 48.997 74.5421 48.991C73.9843 48.991 73.5337 48.8455 73.1903 48.5545C72.8468 48.2635 72.6747 47.8202 72.6738 47.2246V44.5443H71.7016V43.4939H72.6738L72.6764 41.8704Z" fill="white"/>
<path d="M77.9558 43.245H77.1075V41.0319H78.2153L77.9558 43.245Z" fill="white"/>
<path d="M79.1321 44.9438C79.1321 44.4 79.3412 43.9976 79.7595 43.7363C80.2218 43.4643 80.7531 43.3288 81.2908 43.3458C81.9706 43.341 82.6415 43.4982 83.2469 43.804V44.8544C82.9772 44.686 82.6828 44.5598 82.3741 44.4805C82.0472 44.3836 81.7082 44.3325 81.367 44.3286C81.1222 44.3218 80.879 44.3698 80.6556 44.469C80.5667 44.5039 80.4908 44.565 80.4382 44.644C80.3855 44.723 80.3587 44.816 80.3612 44.9106C80.3612 45.0969 80.4735 45.2514 80.7008 45.3739C80.9607 45.512 81.2364 45.6192 81.5219 45.693C81.8421 45.7781 82.1606 45.8789 82.4774 45.9955C82.7877 46.106 83.067 46.288 83.292 46.5264C83.5209 46.7723 83.6425 47.0974 83.6303 47.4313C83.6303 47.9827 83.4121 48.3831 82.9757 48.6324C82.5393 48.8817 81.9798 49.0064 81.2973 49.0064C80.4451 49.0064 79.7367 48.8362 79.1721 48.4958V47.4339C79.7878 47.8231 80.5073 48.0214 81.2379 48.0032C82.022 48.0032 82.4141 47.8206 82.4141 47.4556C82.4141 47.2769 82.3009 47.1263 82.0745 47.0038C81.8147 46.8676 81.5395 46.7622 81.2547 46.6898C80.9345 46.6043 80.6091 46.5047 80.2941 46.3886C79.9808 46.2784 79.6994 46.0944 79.4742 45.8525C79.2437 45.6059 79.1207 45.2794 79.1321 44.9438Z" fill="white"/>
<path d="M89.057 48.8558H87.8472V43.4951H88.9214V44.1614C89.143 43.9018 89.42 43.694 89.7326 43.553C90.0451 43.412 90.3854 43.3412 90.729 43.3458C91.5123 43.3458 92.0773 43.6325 92.4242 44.206C93.0052 43.6325 93.6383 43.3458 94.3235 43.3458C95.0086 43.3458 95.5212 43.5543 95.8612 43.9712C96.2118 44.4049 96.3949 44.9479 96.3777 45.5028V48.8558H95.1679V45.5373C95.1831 45.2368 95.0799 44.9422 94.8799 44.7153C94.7785 44.6118 94.6559 44.5309 94.5203 44.4781C94.3847 44.4253 94.2392 44.4017 94.0936 44.409C93.6047 44.409 93.1563 44.6511 92.7483 45.1352C92.7638 45.2986 92.7715 45.4224 92.7715 45.5041V48.857H91.5669V45.5385C91.5816 45.2381 91.4784 44.9437 91.279 44.7166C91.1776 44.6131 91.055 44.5322 90.9193 44.4794C90.7837 44.4265 90.6383 44.403 90.4927 44.4103C89.9762 44.4103 89.4977 44.6859 89.057 45.2373V48.8558Z" fill="white"/>
<path d="M102.691 47.6151C102.691 47.8755 102.823 48.0057 103.086 48.0057C103.209 48.0002 103.331 47.9779 103.448 47.9393V48.7996C103.201 48.8932 102.938 48.9387 102.673 48.9336C102.131 48.9336 101.769 48.7247 101.587 48.3069C101.01 48.7674 100.288 49.0127 99.5461 49C99.061 49.0139 98.5858 48.8619 98.2008 48.5699C97.8315 48.284 97.6469 47.8798 97.6469 47.3573C97.6469 46.7319 97.8844 46.2758 98.3596 45.9891C98.8764 45.6941 99.4661 45.5474 100.063 45.5653C100.54 45.5685 101.016 45.6207 101.483 45.7211V45.5309C101.488 45.3741 101.457 45.2181 101.393 45.0749C101.328 44.9316 101.231 44.8047 101.11 44.7038C100.86 44.4958 100.511 44.3911 100.057 44.3911C99.3836 44.39 98.7171 44.5292 98.1013 44.7995V43.7044C98.7699 43.4726 99.4728 43.3518 100.181 43.347C100.973 43.347 101.589 43.5406 102.029 43.9278C102.469 44.3149 102.69 44.9033 102.691 45.693V47.6151ZM100.305 46.3962C99.9575 46.3852 99.6122 46.4583 99.2995 46.6094C99.1726 46.6692 99.0663 46.7647 98.994 46.8838C98.9217 47.003 98.8865 47.1406 98.8928 47.2795C98.8874 47.3939 98.9114 47.5077 98.9627 47.6104C99.014 47.7131 99.0908 47.8012 99.1859 47.8666C99.3992 48.0095 99.6527 48.0818 99.9102 48.0734C100.202 48.0787 100.492 48.0248 100.763 47.9151C101.033 47.8053 101.278 47.642 101.482 47.4352V46.5303C101.095 46.4466 100.701 46.4017 100.305 46.3962Z" fill="white"/>
<path d="M109.768 48.8558H108.377L106.59 46.6312H105.72V48.8558H104.51V41.0319H105.72V45.6139H106.614L108.173 43.4914H109.552L107.586 46.1513L109.768 48.8558Z" fill="white"/>
<path d="M110.163 46.173C110.157 45.7413 110.242 45.3131 110.412 44.9158C110.555 44.57 110.78 44.2634 111.068 44.0223C111.331 43.807 111.629 43.637 111.949 43.5194C112.256 43.4053 112.582 43.3465 112.911 43.3459C113.294 43.3408 113.675 43.4052 114.035 43.536C114.341 43.6423 114.617 43.817 114.843 44.0466C115.05 44.2666 115.218 44.5194 115.34 44.7945C115.468 45.0758 115.538 45.3796 115.544 45.6879C115.551 46.0008 115.525 46.3136 115.466 46.6209H111.384C111.406 46.8325 111.479 47.0357 111.597 47.2135C111.715 47.3912 111.875 47.5382 112.062 47.642C112.489 47.8811 112.974 48.0015 113.464 47.9905C114.059 47.9943 114.647 47.8633 115.183 47.6076V48.6286C114.666 48.8745 114.018 48.9975 113.239 48.9975C112.357 48.9975 111.625 48.7516 111.044 48.2598C110.462 47.7679 110.168 47.0723 110.163 46.173ZM114.38 45.7262C114.398 45.5622 114.384 45.3961 114.336 45.2378C114.289 45.0796 114.21 44.9323 114.104 44.8047C113.873 44.4941 113.494 44.3393 112.967 44.3401C112.567 44.3298 112.176 44.4606 111.865 44.709C111.712 44.8331 111.589 44.9888 111.504 45.1653C111.419 45.3418 111.374 45.5346 111.373 45.7301L114.38 45.7262Z" fill="white"/>
<path d="M120.021 41.0319H121.312V48.8558H120.021V41.0319Z" fill="white"/>
<path d="M122.657 41.0319H129.18V42.2061H126.567V48.8558H125.276V42.2061H122.657V41.0319Z" fill="white"/>
<path d="M137.181 41.0319H138.391V48.8558H137.306V48.0058C137.065 48.3236 136.751 48.5797 136.389 48.7527C136.027 48.9257 135.628 49.0105 135.226 49.0001C134.861 49.0127 134.498 48.9458 134.162 48.8039C133.826 48.6621 133.525 48.4489 133.282 48.1794C132.8 47.6193 132.536 46.9081 132.536 46.173C132.536 45.4378 132.8 44.7266 133.282 44.1666C133.525 43.8971 133.826 43.6838 134.162 43.542C134.498 43.4002 134.861 43.3332 135.226 43.3459C136.04 43.3459 136.691 43.6254 137.181 44.1844V41.0319ZM137.17 45.5144C137.022 45.1948 136.79 44.9205 136.498 44.7205C136.19 44.5038 135.819 44.3902 135.441 44.3963C135.215 44.3895 134.99 44.4304 134.782 44.5162C134.573 44.602 134.385 44.7309 134.231 44.8941C133.924 45.2514 133.756 45.7049 133.756 46.1736C133.756 46.6423 133.924 47.0958 134.231 47.4531C134.385 47.6162 134.573 47.7448 134.782 47.8304C134.99 47.9161 135.215 47.9567 135.441 47.9496C135.819 47.9564 136.19 47.8427 136.498 47.6254C136.792 47.4231 137.024 47.145 137.17 46.8213V45.5144Z" fill="white"/>
<path d="M140.658 48.2521C140.082 47.7526 139.793 47.0596 139.793 46.1729C139.793 45.2863 140.082 44.5933 140.658 44.0938C141.24 43.6102 141.976 43.3451 142.736 43.3451C143.496 43.3451 144.231 43.6102 144.813 44.0938C145.385 44.5941 145.671 45.2872 145.672 46.1729C145.673 47.0587 145.386 47.7518 144.813 48.2521C144.231 48.7357 143.496 49.0008 142.736 49.0008C141.976 49.0008 141.24 48.7357 140.658 48.2521ZM143.965 47.4301C144.272 47.0816 144.441 46.6351 144.441 46.1729C144.441 45.7108 144.272 45.2643 143.965 44.9158C143.627 44.6103 143.185 44.4409 142.727 44.4409C142.268 44.4409 141.827 44.6103 141.488 44.9158C141.183 45.2649 141.014 45.7112 141.014 46.1729C141.014 46.6347 141.183 47.081 141.488 47.4301C141.827 47.7356 142.268 47.905 142.727 47.905C143.185 47.905 143.627 47.7356 143.965 47.4301Z" fill="white"/>
<path d="M148.147 44.229C148.372 43.9483 148.659 43.7225 148.987 43.5694C149.315 43.4162 149.673 43.3397 150.036 43.3458C150.714 43.3458 151.256 43.5487 151.663 43.9546C152.069 44.3605 152.272 44.8876 152.273 45.536V48.8545H151.062V45.693C151.062 45.2761 150.945 44.9574 150.711 44.737C150.462 44.5116 150.133 44.3932 149.796 44.4077C149.2 44.4077 148.695 44.7055 148.281 45.3012V48.8558H147.071V43.4951H148.144L148.147 44.229Z" fill="white"/>
<path d="M153.608 46.1728C153.602 45.7414 153.687 45.3133 153.856 44.9157C153.999 44.5701 154.224 44.2636 154.512 44.0222C154.775 43.8068 155.074 43.6368 155.394 43.5193C155.701 43.405 156.026 43.3463 156.355 43.3458C156.738 43.3406 157.119 43.405 157.479 43.5359C157.785 43.6422 158.062 43.8169 158.289 44.0465C158.495 44.2672 158.663 44.5199 158.786 44.7944C158.913 45.0757 158.982 45.3796 158.988 45.6878C158.996 46.0007 158.97 46.3135 158.91 46.6208H154.828C154.851 46.8324 154.924 47.0355 155.042 47.2132C155.16 47.3909 155.32 47.5379 155.508 47.6419C155.935 47.8781 156.419 47.9959 156.908 47.9827C157.503 47.9868 158.091 47.8558 158.627 47.5998V48.6209C158.11 48.8668 157.462 48.9897 156.682 48.9897C155.801 48.9897 155.069 48.7438 154.488 48.252C153.906 47.7602 153.613 47.0671 153.608 46.1728ZM157.825 45.7261C157.843 45.562 157.828 45.3959 157.781 45.2376C157.733 45.0793 157.654 44.9321 157.548 44.8046C157.318 44.494 156.939 44.3392 156.411 44.34C156.011 44.3299 155.62 44.4606 155.309 44.7089C155.156 44.8334 155.033 44.9892 154.948 45.1656C154.863 45.342 154.819 45.5346 154.817 45.73L157.825 45.7261Z" fill="white"/>
</svg>
