<svg width="36" height="35" viewBox="0 0 36 35" fill="none" xmlns="http://www.w3.org/2000/svg">
<g clip-path="url(#clip0_213_661)">
<rect x="4.32129" y="6.54541" width="25.4445" height="22.5455" rx="3.64463" fill="white"/>
<path d="M18.1334 -1.15425e-09C8.49886 -5.16874e-10 0.685791 7.81616 0.685791 17.4545C0.685791 27.0929 8.49886 34.9091 18.1334 34.9091C27.768 34.9091 35.5811 27.0929 35.5811 17.4545C35.5811 7.81616 27.768 -1.79163e-09 18.1334 -1.15425e-09ZM26.8866 13.355L26.8866 15.7184C25.7726 15.7188 24.6902 15.5004 23.6694 15.0695C23.013 14.7923 22.4014 14.4351 21.8421 14.0035L21.8588 21.278C21.8518 22.916 21.204 24.4551 20.0315 25.6144C19.0774 26.558 17.8683 27.1581 16.5578 27.3524C16.2499 27.398 15.9365 27.4214 15.6196 27.4214C14.2168 27.4214 12.885 26.9667 11.7955 26.1279C11.5905 25.97 11.3944 25.7988 11.2077 25.6144C9.93706 24.358 9.28182 22.6552 9.39216 20.8639C9.47633 19.5003 10.022 18.1999 10.9318 17.1807C12.1354 15.8319 13.8192 15.0832 15.6196 15.0832C15.9365 15.0832 16.2499 15.107 16.5578 15.1527L16.5578 16.0265L16.5578 18.4573C16.2659 18.361 15.954 18.308 15.6294 18.308C13.9845 18.308 12.6538 19.6505 12.6784 21.2972C12.694 22.3508 13.2693 23.2718 14.1178 23.7795C14.5166 24.0181 14.9753 24.166 15.4649 24.1928C15.8485 24.2139 16.2168 24.1604 16.5578 24.0478C17.733 23.6594 18.5808 22.5552 18.5808 21.2527L18.5847 16.3814L18.5847 7.48773L21.8381 7.48773C21.8413 7.81023 21.874 8.12488 21.9348 8.42979C22.1803 9.66395 22.8757 10.7347 23.8435 11.4646C24.6874 12.1014 25.7382 12.4788 26.8772 12.4788C26.8779 12.4788 26.8873 12.4788 26.8865 12.4781L26.8865 13.355L26.8866 13.355Z" fill="#FF6B00"/>
</g>
<defs>
<clipPath id="clip0_213_661">
<rect width="34.8953" height="34.9091" fill="white" transform="translate(0.685791)"/>
</clipPath>
</defs>
</svg>
