<svg width="36" height="35" viewBox="0 0 36 35" fill="none" xmlns="http://www.w3.org/2000/svg">
<g clip-path="url(#clip0_213_665)">
<rect x="0.790527" y="0.00012207" width="34.9884" height="34.9884" rx="17.4942" fill="#FF6B00"/>
<path fill-rule="evenodd" clip-rule="evenodd" d="M26.7723 10.2839C27.7065 10.5355 28.4431 11.2724 28.6946 12.2069C29.1617 13.9143 29.1437 17.4728 29.1437 17.4728C29.1437 17.4728 29.1437 21.0132 28.6946 22.7206C28.4431 23.6551 27.7065 24.392 26.7723 24.6436C25.0656 25.0929 18.239 25.0929 18.239 25.0929C18.239 25.0929 11.4302 25.0929 9.7056 24.6256C8.77143 24.374 8.03486 23.6372 7.78335 22.7026C7.33423 21.0132 7.33423 17.4548 7.33423 17.4548C7.33423 17.4548 7.33423 13.9143 7.78335 12.2069C8.03486 11.2724 8.78939 10.5176 9.7056 10.266C11.4123 9.81665 18.239 9.81665 18.239 9.81665C18.239 9.81665 25.0656 9.81665 26.7723 10.2839ZM21.7419 17.4548L16.0642 20.7257L16.0642 14.1839L21.7419 17.4548Z" fill="white"/>
</g>
<defs>
<clipPath id="clip0_213_665">
<rect width="34.8953" height="34.9091" fill="white" transform="translate(0.790527 0.00012207)"/>
</clipPath>
</defs>
</svg>
