<svg width="36" height="35" viewBox="0 0 36 35" fill="none" xmlns="http://www.w3.org/2000/svg">
<g clip-path="url(#clip0_213_657)">
<rect x="0.895264" width="34.9884" height="34.9884" rx="17.4942" fill="#FF6B00"/>
<path d="M14.7099 17.4545C14.7099 15.4463 16.3368 13.8178 18.3442 13.8178C20.3517 13.8178 21.9794 15.4463 21.9794 17.4545C21.9794 19.4627 20.3517 21.0912 18.3442 21.0912C16.3368 21.0912 14.7099 19.4627 14.7099 17.4545ZM12.7448 17.4545C12.7448 20.5483 15.2516 23.0562 18.3442 23.0562C21.4368 23.0562 23.9437 20.5483 23.9437 17.4545C23.9437 14.3607 21.4368 11.8528 18.3442 11.8528C15.2516 11.8528 12.7448 14.3607 12.7448 17.4545ZM22.8568 11.6307C22.8567 11.8896 22.9333 12.1427 23.077 12.3581C23.2207 12.5734 23.425 12.7413 23.6641 12.8405C23.9032 12.9396 24.1663 12.9657 24.4201 12.9153C24.674 12.8649 24.9072 12.7403 25.0903 12.5573C25.2734 12.3743 25.3981 12.1411 25.4487 11.8871C25.4993 11.6332 25.4735 11.37 25.3745 11.1307C25.2756 10.8915 25.1079 10.687 24.8928 10.543C24.6777 10.3991 24.4247 10.3222 24.1659 10.3221H24.1654C23.8185 10.3223 23.4858 10.4602 23.2404 10.7056C22.9951 10.9509 22.8571 11.2837 22.8568 11.6307ZM13.9387 26.3342C12.8755 26.2858 12.2977 26.1086 11.9136 25.959C11.4045 25.7607 11.0413 25.5245 10.6593 25.143C10.2774 24.7614 10.041 24.3984 9.84365 23.889C9.69395 23.505 9.51686 22.9268 9.46853 21.8632C9.41566 20.7133 9.4051 20.3678 9.4051 17.4546C9.4051 14.5413 9.41653 14.1969 9.46853 13.046C9.51694 11.9824 9.69535 11.4053 9.84365 11.0201C10.0419 10.5108 10.2779 10.1474 10.6593 9.76534C11.0407 9.38326 11.4036 9.14675 11.9136 8.94934C12.2975 8.79958 12.8755 8.62241 13.9387 8.57406C15.0881 8.52118 15.4334 8.51062 18.3442 8.51062C21.255 8.51062 21.6007 8.52205 22.7511 8.57406C23.8142 8.6225 24.3911 8.80097 24.7761 8.94934C25.2852 9.14675 25.6485 9.38378 26.0304 9.76534C26.4124 10.1469 26.6479 10.5108 26.8461 11.0201C26.9958 11.4041 27.1729 11.9824 27.2212 13.046C27.2741 14.1969 27.2847 14.5413 27.2847 17.4546C27.2847 20.3678 27.2741 20.7123 27.2212 21.8632C27.1728 22.9268 26.9949 23.5049 26.8461 23.889C26.6479 24.3984 26.4118 24.7618 26.0304 25.143C25.649 25.5242 25.2852 25.7607 24.7761 25.959C24.3923 26.1087 23.8142 26.2859 22.7511 26.3342C21.6016 26.3871 21.2563 26.3977 18.3442 26.3977C15.4321 26.3977 15.0878 26.3871 13.9387 26.3342ZM13.8484 6.61148C12.6875 6.66436 11.8943 6.84851 11.2015 7.11818C10.4841 7.39667 9.87671 7.77028 9.2698 8.37648C8.66288 8.98268 8.29037 9.59123 8.012 10.309C7.74243 11.0024 7.55836 11.7956 7.50549 12.9569C7.45175 14.1201 7.43945 14.4919 7.43945 17.4545C7.43945 20.4171 7.45175 20.7889 7.50549 21.9521C7.55836 23.1135 7.74243 23.9066 8.012 24.6C8.29037 25.3173 8.66297 25.9266 9.2698 26.5325C9.87663 27.1385 10.4841 27.5115 11.2015 27.7908C11.8956 28.0605 12.6875 28.2446 13.8484 28.2975C15.0117 28.3504 15.3828 28.3636 18.3442 28.3636C21.3056 28.3636 21.6773 28.3513 22.84 28.2975C24.001 28.2446 24.7937 28.0605 25.4869 27.7908C26.204 27.5115 26.8117 27.1387 27.4187 26.5325C28.0256 25.9263 28.3973 25.3173 28.6765 24.6C28.946 23.9066 29.131 23.1134 29.183 21.9521C29.2358 20.7881 29.2481 20.4171 29.2481 17.4545C29.2481 14.4919 29.2358 14.1201 29.183 12.9569C29.1301 11.7955 28.946 11.002 28.6765 10.309C28.3973 9.59166 28.0246 8.98364 27.4187 8.37648C26.8127 7.76932 26.204 7.39667 25.4878 7.11818C24.7937 6.84851 24.0009 6.66349 22.8409 6.61148C21.6782 6.55859 21.3065 6.54541 18.3451 6.54541C15.3837 6.54541 15.0117 6.55772 13.8484 6.61148Z" fill="white"/>
</g>
<defs>
<clipPath id="clip0_213_657">
<rect width="34.8953" height="34.9091" fill="white" transform="translate(0.895264)"/>
</clipPath>
</defs>
</svg>
