<svg width="35" height="35" viewBox="0 0 35 35" fill="none" xmlns="http://www.w3.org/2000/svg">
<g clip-path="url(#clip0_213_654)">
<path d="M17.4476 34.9091C27.0837 34.9091 34.8953 27.0944 34.8953 17.4545C34.8953 7.81467 27.0837 0 17.4476 0C7.81158 0 0 7.81467 0 17.4545C0 27.0944 7.81158 34.9091 17.4476 34.9091Z" fill="#FF6B00"/>
<path d="M7.98481 17.0763L24.8072 10.5876C25.588 10.3054 26.2699 10.7781 26.0169 11.9592L26.0184 11.9578L23.1541 25.4574C22.9418 26.4145 22.3733 26.6472 21.578 26.1963L17.2161 22.9803L15.1122 25.008C14.8795 25.2407 14.6832 25.4371 14.2325 25.4371L14.5422 20.9963L22.6263 13.6901C22.9781 13.3803 22.5478 13.2058 22.084 13.5141L12.0937 19.8065L7.78707 18.4625C6.85217 18.1658 6.83181 17.5272 7.98481 17.0763Z" fill="white"/>
</g>
<defs>
<clipPath id="clip0_213_654">
<rect width="34.8953" height="34.9091" fill="white"/>
</clipPath>
</defs>
</svg>
